# Blender 3.3.0
# www.blender.org
mtllib untitled.mtl
o Cube
v -0.950468 -0.001452 1.021829
v -0.950347 2.081851 1.024837
v -0.950347 -0.000234 -0.941908
v 1.138784 0.833395 0.273299
v 1.142145 -0.004942 1.021956
v 1.138784 2.081851 1.024837
v 1.142266 -0.003724 -0.941782
v -0.950347 0.833395 0.273299
v -0.950347 2.081851 1.024837
v -0.950347 0.004230 -0.941835
v 1.138784 0.004230 -0.941835
v 1.138784 2.081851 1.024837
v -0.950347 0.349588 -0.261116
v 1.138784 0.349588 -0.261116
v 1.138784 1.387794 0.722862
v -0.950347 1.387794 0.722862
v -0.950347 0.160048 -0.583703
v 1.138784 0.160048 -0.583703
v 1.138784 0.582693 0.015433
v -0.950347 0.582693 0.015433
v 1.138784 1.102013 0.507192
v -0.950347 1.102013 0.507192
v -0.950347 1.714965 0.894791
v 1.138784 1.714965 0.894791
vn -0.0000 0.0016 -1.0000
vn 1.0000 0.0047 -0.0024
vn -0.0000 0.6567 -0.7542
vn -0.0000 -0.0014 1.0000
vn -0.0017 -1.0000 -0.0006
vn -1.0000 0.0001 -0.0001
vn -0.0000 0.9170 -0.3990
vn -0.0000 1.0000 -0.0000
vn -0.0000 0.7646 -0.6445
vn -0.0000 0.4652 -0.8852
vn -0.0000 0.8622 -0.5066
vn -0.0000 0.7170 -0.6971
vn -0.0000 0.6024 -0.7982
vn -0.0000 0.3341 -0.9425
vt 0.375000 1.000000
vt 0.125000 0.750000
vt 0.375000 0.000000
vt 0.625000 1.000000
vt 0.625000 0.000000
vt 0.875000 0.750000
vt 0.125000 0.500000
vt 0.375000 0.250000
vt 0.500861 0.625590
vt 0.500861 0.500000
vt 0.375000 0.750000
vt 0.625000 0.750000
vt 0.375000 0.500000
vt 0.500861 0.124410
vt 0.500861 0.250000
vt 0.625000 0.000000
vt 0.875000 0.750000
vt 0.625000 0.250000
vt 0.375544 0.250000
vt 0.375544 0.500000
vt 0.625000 0.750000
vt 0.625000 0.500000
vt 0.438203 0.187205
vt 0.438203 0.250000
vt 0.438203 0.562795
vt 0.438203 0.500000
vt 0.562930 0.687795
vt 0.562930 0.500000
vt 0.562930 0.062205
vt 0.562930 0.250000
vt 0.406873 0.218602
vt 0.406873 0.250000
vt 0.406873 0.531398
vt 0.406873 0.500000
vt 0.469532 0.594193
vt 0.469532 0.500000
vt 0.469532 0.155807
vt 0.469532 0.250000
vt 0.531896 0.656693
vt 0.531896 0.500000
vt 0.531896 0.093307
vt 0.531896 0.250000
vt 0.593965 0.031102
vt 0.593965 0.250000
vt 0.593965 0.718898
vt 0.593965 0.500000
s 0
f 3/8/1 10/19/1 11/20/1 7/13/1
f 7/13/2 11/20/2 18/33/2 14/25/2 19/35/2 4/9/2 21/39/2 15/27/2 24/45/2 12/21/2 6/12/2 5/11/2
f 22/42/3 21/40/3 4/10/3 8/15/3
f 5/11/4 6/12/4 2/4/4 1/1/4
f 3/7/5 7/13/5 5/11/5 1/2/5
f 1/3/6 2/5/6 9/16/6 23/43/6 16/29/6 22/41/6 8/14/6 20/37/6 13/23/6 17/31/6 10/19/6 3/8/6
f 17/32/7 18/34/7 11/20/7 10/19/7
f 12/21/8 9/17/8 2/6/8 6/12/8
f 20/38/9 19/36/9 14/26/9 13/24/9
f 23/44/10 24/46/10 15/28/10 16/30/10
f 13/24/11 14/26/11 18/34/11 17/32/11
f 8/15/12 4/10/12 19/36/12 20/38/12
f 16/30/13 15/28/13 21/40/13 22/42/13
f 9/18/14 12/22/14 24/46/14 23/44/14
