# Blender 3.3.0
# www.blender.org
mtllib untitled.mtl
o Cube
v 5.000000 0.500000 -20.000000
v 5.000000 -0.500000 -20.000000
v 5.000000 0.500000 20.000000
v 5.000000 -0.500000 20.000000
v -5.000000 0.500000 -20.000000
v -5.000000 -0.500000 -20.000000
v -5.000000 0.500000 20.000000
v -5.000000 -0.500000 20.000000
v -2.750000 -0.500000 -20.000000
v -2.750000 0.500000 20.000000
v -2.750000 -0.500000 20.000000
v -2.750000 0.500000 -20.000000
v 2.750000 -0.500000 20.000000
v 2.750000 0.500000 -20.000000
v 2.750000 -0.500000 -20.000000
v 2.750000 0.500000 20.000000
v -5.000000 -0.500000 -2.223018
v 5.000000 0.500000 -2.223018
v -5.000000 0.500000 -2.223018
v 5.000000 -0.500000 -2.223018
v 2.750000 0.500000 -2.223018
v 2.750000 0.500000 -16.056101
v -2.750000 -0.500000 -2.223018
v -2.750000 0.500000 -2.223018
v 2.750000 0.500000 -2.223018
v 2.750000 -0.500000 -2.223018
v -5.000000 0.500000 -16.056101
v 5.000000 -0.500000 -16.056101
v -5.000000 -0.500000 -16.056101
v 5.000000 0.500000 -16.056101
v -2.750000 0.500000 -2.223018
v -2.750000 0.500000 -16.056101
v -2.750000 -0.500000 -16.056101
v -2.750000 0.500000 -16.056101
v 2.750000 0.500000 -16.056101
v 2.750000 -0.500000 -16.056101
vn -0.0000 1.0000 -0.0000
vn -0.0000 -0.0000 1.0000
vn -1.0000 -0.0000 -0.0000
vn -0.0000 -1.0000 -0.0000
vn 1.0000 -0.0000 -0.0000
vn -0.0000 -0.0000 -1.0000
vt 0.625000 0.500000
vt 0.375000 0.500000
vt 0.625000 0.750000
vt 0.375000 0.750000
vt 0.625000 0.250000
vt 0.875000 0.500000
vt 0.375000 0.250000
vt 0.125000 0.500000
vt 0.875000 0.750000
vt 0.625000 1.000000
vt 0.625000 0.000000
vt 0.375000 1.000000
vt 0.125000 0.750000
vt 0.375000 0.000000
vt 0.375000 0.281250
vt 0.156250 0.500000
vt 0.625000 0.968750
vt 0.843750 0.750000
vt 0.375000 0.968750
vt 0.156250 0.750000
vt 0.625000 0.281250
vt 0.843750 0.500000
vt 0.343750 0.750000
vt 0.375000 0.781250
vt 0.625000 0.468750
vt 0.656250 0.500000
vt 0.375000 0.468750
vt 0.343750 0.500000
vt 0.625000 0.781250
vt 0.656250 0.750000
vt 0.125000 0.611106
vt 0.375000 0.138894
vt 0.625000 0.611106
vt 0.875000 0.611106
vt 0.625000 0.138894
vt 0.375000 0.611106
vt 0.656250 0.611106
vt 0.656250 0.524649
vt 0.156250 0.611106
vt 0.843750 0.611106
vt 0.000000 0.000000
vt 0.656250 0.611106
vt 0.343750 0.611106
vt 0.000000 0.000000
vt 0.875000 0.524649
vt 0.625000 0.225351
vt 0.375000 0.524649
vt 0.125000 0.524649
vt 0.375000 0.225351
vt 0.625000 0.524649
vt 0.843750 0.611106
vt 0.000000 0.000000
vt 0.843750 0.524649
vt 0.156250 0.524649
vt 0.000000 0.000000
vt 0.843750 0.524649
vt 0.000000 0.000000
vt 0.656250 0.524649
vt 0.000000 0.000000
vt 0.343750 0.524649
vt 0.000000 0.000000
s 0
usemtl Material
f 24/40/1 19/34/1 7/9/1 10/18/1
f 11/19/2 10/17/2 7/10/2 8/12/2
f 29/49/3 27/46/3 5/5/3 6/7/3
f 26/43/4 20/36/4 4/4/4 13/23/4
f 20/36/5 18/33/5 3/3/5 4/4/5
f 15/27/6 14/25/6 1/1/6 2/2/6
f 23/39/4 26/43/4 13/23/4 11/20/4
f 16/29/2 10/17/2 11/19/2 13/24/2
f 12/21/6 14/25/6 15/27/6 9/15/6
f 6/7/6 5/5/6 12/21/6 9/15/6
f 17/31/4 23/39/4 11/20/4 8/13/4
f 4/4/2 3/3/2 16/29/2 13/24/2
f 18/33/1 25/42/1 16/30/1 3/3/1
f 35/58/1 34/56/1 32/53/1 22/38/1
f 25/42/1 35/58/1 22/38/1 21/37/1
f 30/50/1 35/58/1 25/42/1 18/33/1
f 29/48/4 33/54/4 23/39/4 17/31/4
f 14/26/1 12/22/1 34/56/1 35/58/1
f 26/43/6 23/39/6 31/52/6 25/41/6
f 28/47/5 30/50/5 18/33/5 20/36/5
f 36/60/4 28/47/4 20/36/4 26/43/4
f 8/14/3 7/11/3 19/35/3 17/32/3
f 34/56/1 27/45/1 19/34/1 24/40/1
f 12/22/1 5/6/1 27/45/1 34/56/1
f 15/28/4 2/2/4 28/47/4 36/60/4
f 2/2/5 1/1/5 30/50/5 28/47/5
f 15/28/4 36/60/4 33/54/4 9/16/4
f 24/40/1 25/42/1 21/37/1 31/51/1
f 35/59/3 36/61/3 26/44/3 25/41/3
f 6/8/4 9/16/4 33/54/4 29/48/4
f 1/1/1 14/26/1 35/58/1 30/50/1
f 34/56/1 24/40/1 31/51/1 32/53/1
f 17/32/3 19/35/3 27/46/3 29/49/3
f 24/40/1 10/18/1 16/30/1 25/42/1
f 34/57/2 33/55/2 36/61/2 35/59/2
f 33/55/5 34/57/5 31/52/5 23/39/5
